<!DOCTYPE svg PUBLIC "-//W3C//DTD SVG 1.1//EN" "http://www.w3.org/Graphics/SVG/1.1/DTD/svg11.dtd">

<!-- Uploaded to: SVG Repo, www.svgrepo.com, Transformed by: SVG Repo Mixer Tools -->
<svg fill="#ffffff" version="1.1" id="Capa_1" xmlns="http://www.w3.org/2000/svg" xmlns:xlink="http://www.w3.org/1999/xlink" width="800px" height="800px" viewBox="0 0 64.00 64.00" enable-background="new 0 0 64 64" xml:space="preserve" stroke="#ffffff" stroke-width="0.1">

<g id="SVGRepo_bgCarrier" stroke-width="0"/>

<g id="SVGRepo_tracerCarrier" stroke-linecap="round" stroke-linejoin="round"/>

<g id="SVGRepo_iconCarrier"> <g> <g> <path d="M60.286,23.7H28.89c-1.334,0-2.419,1.085-2.419,2.419v18.092c0,1.334,1.085,2.419,2.419,2.419h31.396 c1.334,0,2.419-1.085,2.419-2.419V26.119C62.705,24.785,61.62,23.7,60.286,23.7z M60.705,44.212c0,0.23-0.188,0.419-0.419,0.419 H28.89c-0.231,0-0.419-0.188-0.419-0.419V26.119c0-0.231,0.188-0.419,0.419-0.419h31.396c0.231,0,0.419,0.188,0.419,0.419V44.212z "/> <path d="M61.705,20.064H48.579c-0.552,0-1,0.448-1,1c0,0.552,0.448,1,1,1h13.126c0.552,0,1-0.448,1-1 C62.705,20.512,62.257,20.064,61.705,20.064z"/> <path d="M33.68,22.064h2.217c0.552,0,1-0.448,1-1c0-0.552-0.448-1-1-1H33.68c-0.553,0-1,0.448-1,1 C32.679,21.616,33.127,22.064,33.68,22.064z"/> <path d="M28.003,22.064h2.217c0.552,0,1-0.448,1-1c0-0.552-0.448-1-1-1h-2.217c-0.552,0-1,0.448-1,1 C27.003,21.616,27.451,22.064,28.003,22.064z"/> <path d="M63.124,16.428h-20.11c-3.242-3.646-7.392-6.229-12.048-7.465c-0.001,0-0.002,0-0.003,0 c-0.014-0.004-0.028-0.006-0.042-0.01H30.92c-2.051-0.54-4.166-0.815-6.286-0.815c-2.136,0-4.266,0.278-6.33,0.826 c-0.001,0-0.002,0-0.003,0C12.165,10.592,6.95,14.482,3.619,19.917C1.251,23.778,0,28.223,0,32.772 c0,4.55,1.251,8.994,3.619,12.856c3.332,5.435,8.546,9.324,14.682,10.951c0.001,0,0.003,0,0.005,0s0.004,0.002,0.006,0.002 c0.003,0,0.006,0,0.009,0.002c2.059,0.545,4.183,0.822,6.313,0.822c2.13,0,4.254-0.277,6.313-0.822 c0.003,0,0.006-0.002,0.009-0.002c0.002,0,0.004-0.002,0.006-0.002c0.001,0,0.003,0,0.005,0c4.656-1.235,8.807-3.818,12.049-7.465 h20.109c1.334,0,2.419-1.084,2.419-2.418V18.846C65.543,17.512,64.458,16.428,63.124,16.428z M34.652,49.115h5.586 c-2.158,2.069-4.67,3.674-7.424,4.744C33.502,52.453,34.117,50.867,34.652,49.115z M30.075,54.734 c-1.456,0.359-2.944,0.572-4.442,0.639v-6.301c0.137,0.024,0.275,0.043,0.419,0.043h6.517 C31.863,51.289,31.013,53.203,30.075,54.734z M19.199,54.734c-1.749-2.844-3.136-6.927-3.959-11.638 c2.688-0.42,5.501-0.655,8.393-0.699v4.298v8.676C22.138,55.306,20.652,55.093,19.199,54.734z M4.896,43.828 c-1.706-3.039-2.684-6.432-2.858-9.924H12.39c0.043,2.58,0.235,5.108,0.572,7.551C9.981,42.035,7.228,42.844,4.896,43.828z M4.896,21.714c2.331,0.983,5.085,1.793,8.065,2.373c-0.349,2.527-0.542,5.147-0.577,7.817H2.029 C2.165,28.318,3.147,24.83,4.896,21.714z M19.199,10.807c1.454-0.359,2.939-0.572,4.434-0.638v8.677v4.297 c-2.892-0.044-5.705-0.278-8.393-0.699C16.063,17.735,17.45,13.651,19.199,10.807z M14.935,24.421 c2.789,0.436,5.704,0.679,8.698,0.723v6.76h-9.248C14.419,29.346,14.603,26.84,14.935,24.421z M14.935,41.121 c-0.319-2.334-0.502-4.752-0.544-7.217h9.243v6.494C20.638,40.443,17.724,40.684,14.935,41.121z M25.633,10.169 c1.498,0.066,2.986,0.28,4.442,0.64c0.938,1.529,1.789,3.444,2.494,5.619h-6.517c-0.144,0-0.282,0.018-0.419,0.042V10.169z M34.652,16.428c-0.536-1.753-1.15-3.338-1.837-4.745c2.753,1.07,5.266,2.674,7.424,4.745H34.652z M16.45,11.677 c-1.385,2.846-2.482,6.436-3.181,10.433c-2.688-0.527-5.172-1.246-7.292-2.111C8.575,16.204,12.202,13.318,16.45,11.677z M5.977,45.543c2.12-0.865,4.604-1.583,7.292-2.111c0.699,3.997,1.795,7.586,3.181,10.433 C12.202,52.223,8.575,49.337,5.977,45.543z M63.543,46.695c0,0.231-0.188,0.42-0.419,0.42H42.576h-8.655h-7.869 c-0.231,0-0.419-0.188-0.419-0.42v-5.317v-8.473v-8.74v-5.318c0-0.231,0.188-0.419,0.419-0.419h7.866c0.001,0,0.002,0,0.003,0 s0.002,0,0.003,0h8.652h20.548c0.231,0,0.419,0.188,0.419,0.419V46.695z"/> </g> </g> </g>

</svg>